<?xml version="1.0" encoding="UTF-8" standalone="no"?>
<!-- Created with Inkscape (http://www.inkscape.org/) -->

<svg
   width="277mm"
   height="152.4651mm"
   viewBox="0 0 277 152.4651"
   version="1.1"
   id="svg1"
   inkscape:version="1.3.2 (091e20e, 2023-11-25, custom)"
   sodipodi:docname="drawing.svg"
   inkscape:export-filename="drawing.pdf"
   inkscape:export-xdpi="300"
   inkscape:export-ydpi="300"
   xmlns:inkscape="http://www.inkscape.org/namespaces/inkscape"
   xmlns:sodipodi="http://sodipodi.sourceforge.net/DTD/sodipodi-0.dtd"
   xmlns="http://www.w3.org/2000/svg"
   xmlns:svg="http://www.w3.org/2000/svg">
  <sodipodi:namedview
     id="namedview1"
     pagecolor="#ffffff"
     bordercolor="#000000"
     borderopacity="0.25"
     inkscape:showpageshadow="2"
     inkscape:pageopacity="0.0"
     inkscape:pagecheckerboard="0"
     inkscape:deskcolor="#d1d1d1"
     inkscape:document-units="mm"
     inkscape:zoom="0.5"
     inkscape:cx="536"
     inkscape:cy="484"
     inkscape:window-width="1280"
     inkscape:window-height="778"
     inkscape:window-x="-6"
     inkscape:window-y="-6"
     inkscape:window-maximized="1"
     inkscape:current-layer="layer1"
     showgrid="false" />
  <defs
     id="defs1" />
  <g
     inkscape:label="Layer 1"
     inkscape:groupmode="layer"
     id="layer1"
     transform="matrix(1.1237568,0,0,1.1237568,-36.856336,-41.761659)"
     inkscape:export-filename="logo_noir.png"
     inkscape:export-xdpi="300"
     inkscape:export-ydpi="300"
     style="fill:#000000">
    <path
       style="display:none;fill:#000000"
       d="m 99.22553,170.95477 c -0.0292,-0.0815 -0.54515,-1.31022 -1.14651,-2.7305 -2.43033,-5.73987 -4.96004,-11.75564 -5.14469,-12.23433 l -0.19595,-0.508 -1.06637,-0.0139 c -5.59498,-0.073 -12.49852,-2.79462 -16.50545,-6.507 -0.746181,-0.69132 -0.772979,-0.79546 -0.32367,-1.25776 0.82953,-0.85352 1.99713,-3.63361 2.07026,-4.92933 l 0.0387,-0.68535 0.39224,-0.14057 c 0.21573,-0.0773 0.43399,-0.14039 0.48501,-0.14016 0.051,2.3e-4 0.4082,0.22821 0.79373,0.50661 3.2243,2.32844 8.94664,4.71534 13.58682,5.66734 1.98277,0.40679 2.6068,0.47309 4.40735,0.46827 1.4939,-0.004 1.75675,-0.0257 2.23183,-0.18453 l 0.53851,-0.17999 0.33298,0.32967 0.33298,0.32967 -0.0458,4.42686 c -0.0252,2.43477 -0.064,4.7507 -0.0862,5.14652 -0.0222,0.39582 -0.0617,2.73897 -0.0877,5.207 -0.0528,5.01113 -0.10873,7.39621 -0.17588,7.50486 -0.0799,0.12921 -0.37736,0.0773 -0.43211,-0.0754 z m 20.14075,-22.63771 c 0.0236,-0.31585 0.0543,-0.3583 0.32206,-0.4445 0.23579,-0.0759 0.31791,-0.16214 0.40358,-0.4238 0.0849,-0.25941 0.10282,-2.32756 0.085,-9.83363 -0.0217,-9.11879 -0.029,-9.51218 -0.17953,-9.67853 -0.0863,-0.0954 -0.2673,-0.19765 -0.40217,-0.22727 -0.21966,-0.0482 -0.24522,-0.0885 -0.24522,-0.3858 v -0.33194 h 3.13267 3.13266 v 0.32339 c 0,0.28323 -0.034,0.33843 -0.27416,0.4445 -0.48488,0.2142 -0.48523,0.21714 -0.48659,4.12161 l -0.001,3.57718 h 6.64634 6.64633 l -0.003,-3.66184 c -0.003,-4.03635 0.0154,-3.89817 -0.53907,-4.05127 -0.28448,-0.0786 -0.30491,-0.10662 -0.30491,-0.41888 v -0.33469 h 3.175 3.175 v 0.33039 c 0,0.29417 -0.0291,0.34053 -0.26556,0.42296 -0.52329,0.18242 -0.49081,-0.47717 -0.49374,10.02606 -0.002,6.74578 0.0247,9.68768 0.0888,9.80734 0.0503,0.094 0.22177,0.22537 0.38101,0.2919 0.26093,0.10903 0.28951,0.15429 0.28951,0.4585 v 0.33753 h -3.175 -3.175 v -0.381 c 0,-0.35177 0.0165,-0.381 0.21552,-0.381 0.11853,0 0.30903,-0.0935 0.42333,-0.20782 l 0.20782,-0.20782 v -4.02551 -4.02552 h -6.64633 -6.64634 v 3.88916 c 0,2.48594 0.0318,3.97266 0.088,4.1206 0.10171,0.26753 0.31336,0.45036 0.52584,0.45422 0.11876,0.002 0.14816,0.0783 0.14816,0.38369 v 0.381 h -3.13753 -3.13754 z m 31.64903,-0.0318 c 0,-0.35256 0.0162,-0.381 0.21724,-0.381 0.25232,0 0.54297,-0.13952 0.69024,-0.33133 0.0796,-0.10373 0.10375,-2.32397 0.10583,-9.74633 0.003,-10.77919 0.0581,-9.90801 -0.6371,-10.08306 -0.36427,-0.0917 -0.37621,-0.10515 -0.37621,-0.42334 v -0.32862 h 3.38667 3.38667 v 0.33483 c 0,0.31579 -0.0169,0.338 -0.29707,0.39056 -0.16339,0.0307 -0.39199,0.1304 -0.508,0.22165 l -0.21093,0.16592 0.003,9.66703 c 0.002,7.46562 0.0262,9.69761 0.10583,9.80136 0.14727,0.19181 0.43792,0.33133 0.69024,0.33133 0.20102,0 0.21724,0.0284 0.21724,0.381 v 0.381 h -3.38667 -3.38667 z m 13.80067,0.0149 c 0,-0.37341 2.3e-4,-0.37368 0.34699,-0.4202 0.19107,-0.0256 0.43836,-0.13237 0.55033,-0.23757 l 0.20335,-0.19103 v -9.64109 -9.6411 l -0.19808,-0.19808 c -0.10895,-0.10895 -0.3566,-0.22486 -0.55034,-0.25759 -0.34384,-0.0581 -0.35225,-0.0675 -0.35225,-0.39448 v -0.33496 l 7.72583,0.0311 c 7.53653,0.0304 7.7497,0.0357 8.69951,0.21711 1.88323,0.35971 3.40686,0.96006 4.40266,1.73477 0.53943,0.41966 1.19028,1.19653 1.4304,1.70735 0.57579,1.22494 0.57496,2.84104 -0.002,4.06864 -0.36397,0.77431 -1.54508,1.72229 -2.85569,2.29204 -0.35486,0.15426 -0.65571,0.31202 -0.66857,0.35059 -0.0129,0.0386 0.17725,0.14026 0.42245,0.22601 1.25774,0.43981 2.60323,1.36044 3.24788,2.22232 0.73123,0.97761 1.05544,2.71553 0.76315,4.09085 -0.48952,2.30334 -2.33389,3.82427 -5.4702,4.51092 -0.77884,0.17052 -1.07202,0.17708 -9.24984,0.20706 l -8.4455,0.031 z m 16.10098,-3.67482 c 1.12499,-0.31538 1.74367,-0.72821 2.16258,-1.44302 0.26004,-0.44372 0.36017,-1.43705 0.20335,-2.01723 -0.19793,-0.73223 -0.87499,-1.39322 -1.77531,-1.73317 -0.99358,-0.37515 -1.6343,-0.41705 -6.38343,-0.41739 l -4.46617,-3.2e-4 v 2.9255 2.92549 l 4.80483,-0.0289 c 4.61127,-0.0277 4.831,-0.0362 5.45415,-0.21095 z m -0.22598,-9.36617 c 0.83722,-0.19879 1.46983,-0.53956 1.75433,-0.94502 0.31734,-0.45227 0.45477,-1.22775 0.3249,-1.83333 -0.15977,-0.74497 -0.43771,-1.12374 -1.04271,-1.42096 -1.01788,-0.50005 -1.33107,-0.52791 -6.43402,-0.57237 l -4.6355,-0.0404 v 2.5107 2.5107 l 4.72017,-0.0343 c 4.02279,-0.0292 4.80773,-0.0551 5.31283,-0.17502 z m 11.303,13.04305 c 0,-0.33814 0.0207,-0.3715 0.29215,-0.46963 0.59979,-0.21689 0.40907,0.14735 5.23801,-10.00371 2.02692,-4.26085 3.82151,-8.01371 3.98798,-8.33968 0.48355,-0.94684 0.40938,-1.42448 -0.26495,-1.70623 -0.24888,-0.10399 -0.27852,-0.1523 -0.27852,-0.45391 v -0.33753 h 3.47133 3.47134 v 0.34168 c 0,0.32395 -0.0196,0.35009 -0.37835,0.50385 -0.42156,0.18071 -0.51889,0.38301 -0.44594,0.92692 0.0266,0.19825 1.83436,3.82683 4.68294,9.39971 4.40972,8.627 4.65741,9.08904 4.99842,9.32366 0.19733,0.13576 0.45691,0.28416 0.57685,0.32976 0.18998,0.0722 0.21808,0.13227 0.21808,0.466 v 0.3831 h -3.64067 -3.64067 v -0.381 c 0,-0.30866 0.0286,-0.381 0.1505,-0.381 0.0828,0 0.23954,-0.0624 0.34837,-0.1386 0.35424,-0.24812 0.21822,-0.71113 -0.7801,-2.6554 l -0.89121,-1.73567 -5.06528,-0.0207 -5.06528,-0.0207 -0.82721,1.62939 c -0.78298,1.54225 -1.07779,2.22244 -1.07779,2.4867 0,0.18888 0.32189,0.45502 0.55034,0.45502 0.19442,0 0.21166,0.031 0.21166,0.381 v 0.381 h -2.921 -2.921 z m 15.57867,-8.05362 c 0,-0.0196 -0.77702,-1.75651 -1.72671,-3.85984 l -1.72671,-3.82424 -1.91396,3.76414 c -1.05267,2.07028 -1.91395,3.80721 -1.91395,3.85984 0,0.0697 0.99006,0.0957 3.64066,0.0957 2.00237,0 3.64067,-0.016 3.64067,-0.0356 z m 14.83297,8.06271 c 0.0237,-0.32291 0.0514,-0.36143 0.30718,-0.42731 0.55375,-0.1426 0.52845,0.37082 0.50344,-10.21626 -0.0217,-9.17008 -0.029,-9.56483 -0.17954,-9.7312 -0.0863,-0.0954 -0.26729,-0.19765 -0.40216,-0.22727 -0.21966,-0.0482 -0.24522,-0.0885 -0.24522,-0.3858 v -0.33194 h 3.556 3.556 v 0.3183 c 0,0.22661 -0.0488,0.34877 -0.16934,0.42405 -0.21454,0.13399 -0.21525,0.40897 -0.002,0.75879 0.13015,0.21345 9.33383,9.84622 11.99435,12.55354 l 0.54083,0.55033 -0.0224,-6.70097 c -0.0217,-6.48899 -0.0276,-6.7067 -0.18617,-6.88188 -0.0901,-0.0995 -0.32818,-0.2223 -0.52917,-0.27291 -0.35223,-0.0887 -0.36544,-0.10389 -0.36544,-0.42063 v -0.32862 h 3.13267 3.13267 v 0.33194 c 0,0.29734 -0.0256,0.33756 -0.24522,0.3858 -0.13487,0.0296 -0.31585,0.1319 -0.40217,0.22727 -0.15058,0.16638 -0.15785,0.56088 -0.17918,9.73203 -0.0246,10.58562 -0.0499,10.07303 0.50309,10.21543 0.2558,0.0659 0.28349,0.1044 0.30718,0.42731 l 0.026,0.3549 h -3.3492 -3.3492 v -0.37511 c 0,-0.31888 0.0273,-0.37917 0.18185,-0.40217 0.31495,-0.0468 0.39233,-0.2871 0.19915,-0.61831 -0.13764,-0.23599 -12.37008,-13.06924 -12.98808,-13.62601 l -0.18049,-0.1626 0.0226,6.9971 0.0226,6.99711 0.18029,0.18027 c 0.0992,0.0991 0.30871,0.20633 0.46566,0.23819 0.26391,0.0536 0.28734,0.0848 0.31142,0.41473 l 0.026,0.3568 h -3.10007 -3.10007 z m 29.27837,-0.009 c 0,-0.33814 0.0207,-0.3715 0.29214,-0.46963 0.59966,-0.21684 0.41587,0.1341 5.19447,-9.91905 2.00319,-4.21428 3.79799,-7.96609 3.98844,-8.33733 0.53077,-1.03463 0.47282,-1.50298 -0.22186,-1.79324 -0.24889,-0.10399 -0.27853,-0.1523 -0.27853,-0.45391 v -0.33753 h 3.47134 3.47133 v 0.34168 c 0,0.32395 -0.0196,0.35009 -0.37835,0.50385 -0.42156,0.18071 -0.51889,0.38301 -0.44593,0.92692 0.0266,0.19825 1.83435,3.82683 4.68294,9.39971 4.40971,8.627 4.65741,9.08904 4.99841,9.32366 0.19733,0.13576 0.45692,0.28416 0.57686,0.32976 0.18997,0.0722 0.21807,0.13227 0.21807,0.466 v 0.3831 h -3.64067 -3.64066 v -0.381 c 0,-0.30866 0.0286,-0.381 0.15049,-0.381 0.0828,0 0.23954,-0.0624 0.34837,-0.1386 0.35424,-0.24812 0.21822,-0.71113 -0.7801,-2.6554 l -0.89121,-1.73567 -5.06528,-0.0207 -5.06527,-0.0207 -0.82722,1.62939 c -0.78298,1.54225 -1.07778,2.22244 -1.07778,2.4867 0,0.18888 0.32188,0.45502 0.55033,0.45502 0.19442,0 0.21167,0.031 0.21167,0.381 v 0.381 h -2.921 -2.921 z m 15.57866,-8.05658 c 0,-0.0212 -0.77711,-1.75795 -1.72692,-3.85942 l -1.72693,-3.82086 -1.91374,3.76373 c -1.05256,2.07004 -1.91374,3.80678 -1.91374,3.85941 0,0.0697 0.99006,0.0957 3.64067,0.0957 2.00236,0 3.64066,-0.0174 3.64066,-0.0386 z m -200.275716,7.23149 c -2.266669,-0.35612 -4.274153,-1.7648 -5.280007,-3.70505 -0.454065,-0.87587 -0.682519,-1.60739 -0.772401,-2.47326 -0.333752,-3.2152 1.655725,-6.10222 4.909097,-7.12382 0.552737,-0.17356 0.801942,-0.19846 1.986683,-0.19846 1.563555,0 2.087496,0.12027 3.344333,0.76765 3.03126,1.56137 4.501051,5.0974 3.428971,8.24944 -0.405842,1.19322 -1.078565,2.14034 -2.087459,2.93891 -0.788541,0.62415 -1.937224,1.20507 -2.799853,1.41597 -0.700543,0.17126 -2.052435,0.23497 -2.729364,0.12862 z m 29.460706,-4.4007 c -11.87399,-1.03482 -22.397644,-7.81854 -28.958654,-18.66726 -3.732371,-6.17152 -6.001192,-13.48999 -6.56195,-21.16667 -0.1139,-1.55927 -0.136988,-4.969901 -0.04545,-6.714251 l 0.06799,-1.29558 0.393631,-0.40413 c 0.325501,-0.33418 0.492318,-0.43084 0.963817,-0.55847 1.077746,-0.29173 2.267064,-0.0669 3.34247,0.6319 0.479383,0.31149 0.54962,0.39816 0.87122,1.07508 1.646157,3.46487 3.239785,11.636981 2.88469,14.792681 -0.09759,0.86724 -0.09453,0.90632 0.121279,1.54956 0.418147,1.24634 0.986776,2.03599 1.829163,2.54013 1.160417,0.69447 2.631649,0.69119 4.078764,-0.009 0.66519,-0.3219 0.99058,-0.54429 2.53823,-1.73481 2.00797,-1.54462 4.73877,-3.24029 6.6638,-4.13786 5.54986,-2.58769 9.93099,-2.69888 12.32802,-0.3129 1.21829,1.21268 1.82936,3.1455 1.68524,5.33041 -0.0579,0.87787 -0.42829,2.98416 -0.55086,3.13264 -0.17039,0.20639 -0.32527,1.19961 -0.36969,2.37069 -0.0538,1.41938 -0.44578,4.30311 -0.76677,5.64153 -0.33615,1.40161 -0.40722,2.09516 -0.35178,3.43248 0.0647,1.56022 0.209,2.64564 0.69485,5.22607 0.18217,0.96758 0.63407,1.81459 1.61756,3.03191 0.57242,0.70851 1.04228,1.02344 1.9185,1.28591 0.98785,0.29591 1.15244,0.3116 3.37146,0.32138 1.58758,0.007 2.0375,-0.0155 2.14817,-0.10732 0.23894,-0.19831 1.35123,-0.15239 1.86334,0.0769 0.7975,0.3571 1.38863,1.17218 1.38863,1.9147 0,0.71784 -0.72809,1.813 -1.13465,1.70668 -0.0945,-0.0247 -0.53512,0.047 -0.97911,0.15943 -1.10117,0.27879 -2.86118,0.59654 -4.23624,0.7648 -1.32769,0.16247 -5.50046,0.23803 -6.81567,0.12341 z M 59.648646,134.9329 c -0.06362,-0.0603 -0.228671,-0.16678 -0.366779,-0.23663 -0.344037,-0.174 -1.319938,-1.10279 -1.815714,-1.72805 -3.284053,-4.1418 -6.523668,-12.74889 -7.50769,-19.94663 -0.337783,-2.47075 -0.08399,-5.92214 0.412899,-5.61505 0.04961,0.0307 1.55977,0.0478 3.355907,0.038 2.992617,-0.0163 3.290483,-0.005 3.562036,0.13382 l 0.296334,0.15159 -0.02976,1.48166 c -0.0461,2.2949 0.250076,4.68335 0.918722,7.40899 1.394007,5.68245 4.131738,11.04136 6.799597,13.30971 0.28826,0.24509 0.552684,0.44615 0.587609,0.4468 0.299874,0.006 -0.337355,0.52724 -2.861274,2.34255 -1.608625,1.157 -2.994847,2.15296 -3.080493,2.21326 -0.127449,0.0897 -0.176719,0.0897 -0.271393,0 z M 134.3835,115.00189 c -0.31402,-0.0992 -0.55727,-0.27259 -0.97681,-0.69635 -0.77185,-0.77962 -1.20671,-1.65821 -1.74596,-3.52761 -0.0806,-0.2794 -0.17317,-0.5461 -0.20573,-0.59267 -0.0326,-0.0466 -0.084,-0.44662 -0.11425,-0.889 -0.24381,-3.56274 -0.48388,-7.34277 -0.55385,-8.72067 -0.0928,-1.827741 -0.19815,-2.359821 -0.65054,-3.286331 -1.14686,-2.34882 -4.02817,-2.92402 -7.9443,-1.58592 -2.78089,0.95019 -6.07716,2.8167 -9.36141,5.300871 -1.93801,1.46589 -4.06624,2.19789 -6.38052,2.19458 -1.73461,-0.002 -2.85847,-0.36033 -3.73491,-1.18923 -0.82121,-0.77666 -1.00368,-1.40381 -0.88507,-3.042031 0.0422,-0.58242 0.11477,-1.38279 0.16134,-1.7786 0.0466,-0.39582 0.12537,-1.93887 0.17511,-3.429 0.0497,-1.49014 0.12419,-3.50944 0.16543,-4.48734 0.28482,-6.75383 0.43308,-10.10549 0.55872,-12.63081 l 0.14399,-2.89414 -0.23473,-0.47979 c -0.26051,-0.53246 -0.65425,-0.83788 -1.4799,-1.14792 -1.18455,-0.44481 -2.03738,-0.56248 -6.4388,-0.8884 -1.59275,-0.11794 -2.01551,-0.18219 -3.38137,-0.5139 -1.61771,-0.39287 -1.94622,-0.53898 -2.16558,-0.96317 -0.27228,-0.52653 -0.10918,-0.75035 0.78096,-1.07173 2.01965,-0.72917 3.56053,-1.15693 5.26609,-1.46189 3.04329,-0.54417 6.9968,-0.59251 10.21023,-0.12485 7.16851,1.04325 14.17179,4.33286 19.85434,9.32606 1.21801,1.07026 3.39119,3.27175 4.32749,4.38388 4.30446,5.11276 7.24447,11.1246 8.40526,17.18733 0.91113,4.758751 0.8274,9.008381 -0.26758,13.580881 -0.24697,1.03132 -0.34456,1.31264 -0.46641,1.34451 -0.0848,0.0222 -0.26861,0.26714 -0.40857,0.54439 -0.64731,1.28231 -1.64057,1.85851 -2.65267,1.53885 z M 103.23852,77.102749 c -0.0203,-0.10532 -0.0376,-0.0391 -0.0385,0.14718 -9.4e-4,0.18626 0.0156,0.27243 0.0368,0.19149 0.0212,-0.081 0.022,-0.23335 0.002,-0.33867 z M 266.7358,112.38421 c -0.0669,-0.0602 -84.62858,-0.25162 -111.18045,-0.25162 h -12.60496 l 0.0557,-1.143 c 0.0307,-0.62865 0.0913,-1.97311 0.13477,-2.98768 0.0435,-1.01458 0.10209,-1.88198 0.13026,-1.92755 0.0282,-0.0456 0.0871,-0.0607 0.13089,-0.0336 0.0842,0.052 3.91121,0.0522 4.77695,2.2e-4 0.2794,-0.0168 4.52755,-0.0534 9.44033,-0.0813 4.91279,-0.028 10.78019,-0.0696 13.03867,-0.0924 2.25848,-0.0229 8.79264,-0.061 14.52034,-0.0848 5.7277,-0.0237 12.18565,-0.0618 14.351,-0.0846 2.16535,-0.0228 8.10895,-0.0608 13.208,-0.0845 5.09905,-0.0237 10.9093,-0.0617 12.91166,-0.0846 2.00237,-0.0229 7.64117,-0.0609 12.53067,-0.0846 4.8895,-0.0237 11.2141,-0.0658 14.05467,-0.0935 5.08493,-0.0497 9.76619,0.0439 11.11359,0.22223 0.3382,0.0448 1.65265,0.15814 2.921,0.25196 5.901,0.43652 12.89719,1.03269 12.96984,1.1052 0.0508,0.0507 0.0485,0.1122 -0.006,0.1669 -0.0476,0.0476 -2.06503,0.93768 -4.4831,1.97786 -2.41806,1.04018 -5.06322,2.18742 -5.87814,2.54942 -1.27236,0.56519 -2.04604,0.84056 -2.13552,0.76005 z m -217.913162,-7.6241 c -2.118783,-0.0603 -5.700183,-0.16949 -7.958667,-0.24272 -2.258483,-0.0732 -4.607082,-0.13285 -5.219108,-0.13247 -0.95389,5.8e-4 -1.120387,-0.0192 -1.166087,-0.13825 -0.125987,-0.32832 0.03606,-0.43665 1.541388,-1.03043 0.82471,-0.32532 3.937874,-1.56271 6.91814,-2.74978 2.980267,-1.187071 5.689521,-2.259011 6.020565,-2.382091 l 0.601897,-0.22379 0.05677,-0.68069 c 0.03122,-0.37438 0.132374,-1.12558 0.224782,-1.66933 2.106539,-12.3954 12.965846,-26.64528 26.449022,-34.70714 5.46342,-3.26669 10.85493,-5.24796 16.0923,-5.91361 1.52289,-0.19355 4.67341,-0.21275 4.94841,-0.0301 l 0.19499,0.12947 -0.0155,3.55157 c -0.0169,3.87572 -0.0266,3.958 -0.47185,4.00262 -0.76967,0.0771 -3.06375,0.46826 -4.27778,0.72935 -16.912,3.63707 -30.457965,15.85057 -34.282888,30.91059 -0.729811,2.87351 -1.015459,5.04236 -1.076075,8.170331 -0.03867,1.99539 -0.06444,2.34347 -0.180227,2.43417 -0.171611,0.13443 -3.032985,0.12501 -8.400077,-0.0276 z m 95.022102,-1.77124 c -0.14838,-0.10393 -0.1906,-0.2448 -0.23471,-0.78317 -0.22414,-2.735531 -0.43118,-4.166061 -0.94014,-6.495821 -1.34576,-6.16019 -4.09988,-12.189 -6.87146,-15.04171 -0.25458,-0.26203 -0.44966,-0.53498 -0.4335,-0.60656 0.053,-0.23492 5.56982,-5.14002 5.781,-5.14002 0.30728,0 1.67399,1.78697 2.75208,3.59834 3.50686,5.89207 6.61818,14.58629 7.33232,20.48933 0.15187,1.255361 0.13314,2.860291 -0.0401,3.438271 l -0.0916,0.3056 -1.0788,0.0571 c -4.26176,0.2255 -5.75219,0.30275 -5.8648,0.30397 -0.0711,7.8e-4 -0.21075,-0.0556 -0.31025,-0.12531 z M 131.92298,77.418989 c -2.78759,-0.52675 -4.87395,-2.58028 -5.60363,-5.51547 -0.21962,-0.88348 -0.19483,-2.90033 0.0467,-3.79759 0.37628,-1.39788 1.14408,-2.69568 2.182,-3.6882 1.44758,-1.38425 2.91637,-1.96335 4.98361,-1.96487 1.07236,-7.9e-4 1.78687,0.17275 2.87866,0.69917 1.85004,0.892 3.21295,2.56016 3.786,4.63392 0.2654,0.96041 0.26347,3.07084 -0.004,4.04531 -0.22912,0.83575 -0.74851,1.9371 -1.23509,2.61897 -1.60403,2.24785 -4.46345,3.4546 -7.03455,2.96876 z m -10.668,-10.30955 c -0.75073,-0.4225 -1.38283,-0.67638 -3.25967,-1.30927 -3.26972,-1.10259 -3.81244,-1.26408 -5.63033,-1.67538 -0.88477,-0.20019 -2.04682,-0.46503 -2.58233,-0.58856 -0.53552,-0.12352 -1.41182,-0.32094 -1.94734,-0.4387 -0.53552,-0.11777 -1.32348,-0.32327 -1.75103,-0.45667 -0.42754,-0.13341 -0.97999,-0.26603 -1.22766,-0.29472 -0.24767,-0.0287 -1.02857,-0.14464 -1.73533,-0.25768 -0.70677,-0.11304 -1.51414,-0.20553 -1.79417,-0.20553 -0.28004,0 -0.52767,-0.03 -0.55029,-0.0666 -0.0631,-0.10203 0.1014,-16.08376 0.20101,-19.533759 0.0868,-3.00777 0.0906,-3.05056 0.28191,-3.24192 0.23176,-0.23178 0.44169,-0.18016 0.51893,0.12759 0.0494,0.19695 2.20041,4.991909 3.97973,8.871659 0.38442,0.8382 1.12748,2.4765 1.65126,3.64067 0.52377,1.16416 1.01255,2.16429 1.08616,2.2225 0.0736,0.0582 0.25738,0.10583 0.40836,0.10583 0.47234,0 2.54181,0.40672 4.34794,0.85452 5.60763,1.39031 11.14974,3.63133 12.43879,5.02979 0.35922,0.3897 0.42461,0.57742 0.24189,0.69431 -0.0582,0.0372 -0.88688,1.6373 -1.8415,3.55568 -0.95461,1.91839 -1.77376,3.4885 -1.82033,3.48916 -0.0466,6.5e-4 -0.50377,-0.23468 -1.016,-0.52295 z"
       id="path14"
       sodipodi:insensitive="true"
       sodipodi:nodetypes="csscsssscsscssccccssssccssscscscccscccccccscccssccsscccssscccccsccscccscssssscccscsccssscccccsscccsssccssscsssssssccssssscccsssssssscccssscsssscccssssssscccsscscccsssscccssscsssscssssscccsssscsssscccsssssscccscssccccssccccsssssscccssssssscccsscscccsssscccssscssssssssssssssscssscssssssscssssscsssssscssscsccssssccccssscsssssssscsssscscccsscsssssssssssssssccsccssccsscscccsssscssscssssccscssscssssccsccsssccsssscsssscsssscsssssscscccssssssssccccssssssssscc"
       inkscape:label="original pas vectoriel" />
    <circle
       style="display:none;fill:#000000;fill-opacity:1;stroke-width:0.838888;stroke-linejoin:round"
       id="circle14"
       cx="100.63003"
       cy="104.99971"
       r="43.014507" />
    <g
       id="g19"
       inkscape:label="bonhomme bas"
       transform="rotate(180,113.09444,90.523172)"
       style="display:inline;fill:#000000"
       sodipodi:insensitive="true">
      <circle
         style="fill:#000000;stroke-width:0.820748;stroke-linejoin:round"
         id="circle4"
         cx="67.876915"
         cy="140.62524"
         r="7.3892655"
         transform="rotate(180,113.09444,90.523172)" />
      <path
         id="path18"
         style="fill:#000000;fill-opacity:1;stroke-width:0.79375;stroke-linejoin:round"
         d="m 160.06837,85.81133 c 2.01911,-0.03228 6.90835,-4.509136 2.51612,-21.0814 -2.38052,-8.981949 -11.31531,-17.096732 -11.33057,-17.110584 l -0.003,-0.0026 c -0.015,-0.01409 -8.81731,-8.272239 -17.96067,-9.928076 -17.99469,-3.25881 -21.42849,2.909795 -20.73413,4.547526 2.04304,4.818737 19.52357,-1.132287 20.44785,5.756755 0.80451,5.996234 -3.15491,10.867313 -5.47099,15.860014 -2.73871,5.903758 0.5023,8.913151 0.5023,8.913151 l 11.02361,-11.939323 -11.02103,11.94139 c 0,0 3.25826,2.990477 8.92452,-0.21084 4.79186,-2.707281 9.33138,-7.042697 15.37271,-6.719487 6.94084,0.371335 2.40466,18.271007 7.37112,19.922815 0.1055,0.03509 0.22713,0.05279 0.36174,0.05064 z" />
    </g>
    <g
       id="g18"
       inkscape:label="bonhomme haut"
       style="display:inline;fill:#000000"
       sodipodi:insensitive="true">
      <circle
         style="fill:#000000;stroke-width:0.820748;stroke-linejoin:round"
         id="path4"
         cx="133.53166"
         cy="69.842125"
         r="7.3892655" />
      <path
         id="path15"
         style="fill:#000000;fill-opacity:1;stroke-width:0.79375;stroke-linejoin:round"
         d="m 98.678215,66.214563 c -9.471411,0.154558 -11.448261,4.199774 -10.905795,5.479252 2.043041,4.818737 19.52305,-1.132287 20.44733,5.756755 0.80451,5.996234 -3.15439,10.867312 -5.47047,15.860013 -2.73872,5.903759 0.5023,8.913147 0.5023,8.913147 L 114.15169,90.417737 103.25365,102.2258 c 0,0 3.25877,2.99048 8.92503,-0.21084 4.79186,-2.707281 9.33087,-7.042695 15.37219,-6.719485 6.94084,0.371335 2.40466,18.271005 7.37113,19.922815 1.68794,0.56139 7.5629,-3.35367 2.87786,-21.030757 -2.38072,-8.982694 -11.3168,-17.098591 -11.33058,-17.111101 0,0 -0.003,-0.0021 -0.003,-0.0021 -0.0136,-0.01276 -8.81657,-8.272622 -17.96066,-9.928593 -3.93634,-0.712864 -7.17583,-0.974485 -9.827825,-0.931209 z" />
    </g>
    <path
       id="rect11"
       style="display:inline;fill:#000000;stroke-width:4.65502;stroke-linejoin:round"
       d="m 143.44499,104.99979 a 43.014507,43.014507 0 0 1 -0.76378,7.62021 h 124.22756 l 12.36307,-5.3666 c 0,0 0.0203,-0.009 0.0202,-0.0243 -10e-5,-0.0133 -0.0212,-0.0171 -0.0212,-0.0171 l -12.36204,-2.20658 v -0.006 z" />
    <path
       id="path11"
       style="display:inline;fill:#000000;fill-opacity:1;stroke-width:0.79375;stroke-linejoin:round"
       inkscape:label="big shape"
       d="m 100.61608,37.163106 c -0.0254,-0.0059 -0.0234,0.03521 -0.0232,0.08888 0.0125,5.715969 0.0372,17.14779 0.0372,17.14779 v 5.17e-4 7.585584 a 43.014507,43.014507 0 0 1 0.005,-5.17e-4 43.014507,43.014507 0 0 1 22.92212,6.889502 10.044083,10.044083 0 0 1 3.54087,-6.730856 50.599998,50.599998 0 0 0 -18.4459,-7.093623 c -1.47454,-3.285789 -5.33126,-11.880477 -7.99693,-17.820618 -0.0207,-0.04619 -0.0258,-0.06366 -0.0388,-0.06666 z M 97.058158,54.656612 A 50.599998,50.599998 0 0 0 50.732821,96.956873 c -3.253076,1.459843 -11.912499,5.345847 -17.868677,8.018627 -0.04619,0.0207 -0.06315,0.0251 -0.06615,0.0383 -0.0059,0.0254 0.03521,0.0239 0.08888,0.0238 1.735822,-0.004 2.897611,-0.006 5.207434,-0.0114 5.296305,-0.0116 11.940356,-0.0264 11.940356,-0.0264 h 7.585584 A 43.014507,43.014507 0 0 1 97.058158,62.267 Z m 44.556452,21.105689 a 10.044083,10.044083 0 0 1 -6.47867,3.983736 43.014507,43.014507 0 0 1 8.20053,21.681883 h 7.61659 A 50.599998,50.599998 0 0 0 141.61461,75.762301 Z M 50.318892,108.57167 a 50.599998,50.599998 0 0 0 9.599414,25.9674 10.044083,10.044083 0 0 1 6.547404,-3.85712 43.014507,43.014507 0 0 1 -8.533329,-22.11028 z m 27.558525,32.66157 a 10.044083,10.044083 0 0 1 -3.291789,6.85178 50.599998,50.599998 0 0 0 18.006136,6.81715 c 1.459983,3.2534 5.345824,11.91216 8.018636,17.86816 0.0207,0.0462 0.0252,0.0633 0.0382,0.0661 0.0254,0.006 0.0239,-0.0347 0.0238,-0.0884 -0.006,-2.5376 -0.009,-4.32257 -0.0165,-7.61297 h -0.0258 v -17.12092 a 43.014507,43.014507 0 0 1 -22.752613,-6.78098 z" />
    <path
       d="m 119.36628,148.31706 c 0.0236,-0.31585 0.0543,-0.3583 0.32206,-0.4445 0.23579,-0.0759 0.31791,-0.16214 0.40358,-0.4238 0.0849,-0.25941 0.10282,-2.32756 0.085,-9.83363 -0.0217,-9.11879 -0.029,-9.51218 -0.17953,-9.67853 -0.0863,-0.0954 -0.2673,-0.19765 -0.40217,-0.22727 -0.21966,-0.0482 -0.24522,-0.0885 -0.24522,-0.3858 v -0.33194 h 3.13267 3.13266 v 0.32339 c 0,0.28323 -0.034,0.33843 -0.27416,0.4445 -0.48488,0.2142 -0.48523,0.21714 -0.48659,4.12161 l -0.001,3.57718 h 6.64634 6.64633 l -0.003,-3.66184 c -0.003,-4.03635 0.0154,-3.89817 -0.53907,-4.05127 -0.28448,-0.0786 -0.30491,-0.10662 -0.30491,-0.41888 v -0.33469 h 3.175 3.175 v 0.33039 c 0,0.29417 -0.0291,0.34053 -0.26556,0.42296 -0.52329,0.18242 -0.49081,-0.47717 -0.49374,10.02606 -0.002,6.74578 0.0247,9.68768 0.0888,9.80734 0.0503,0.094 0.22177,0.22537 0.38101,0.2919 0.26093,0.10903 0.28951,0.15429 0.28951,0.4585 v 0.33753 h -3.175 -3.175 v -0.381 c 0,-0.35177 0.0165,-0.381 0.21552,-0.381 0.11853,0 0.30903,-0.0935 0.42333,-0.20782 l 0.20782,-0.20782 v -4.02551 -4.02552 h -6.64633 -6.64634 v 3.88916 c 0,2.48594 0.0318,3.97266 0.088,4.1206 0.10171,0.26753 0.31336,0.45036 0.52584,0.45422 0.11876,0.002 0.14816,0.0783 0.14816,0.38369 v 0.381 h -3.13753 -3.13754 z m 31.64903,-0.0318 c 0,-0.35256 0.0162,-0.381 0.21724,-0.381 0.25232,0 0.54297,-0.13952 0.69024,-0.33133 0.0796,-0.10373 0.10375,-2.32397 0.10583,-9.74633 0.003,-10.77919 0.0581,-9.90801 -0.6371,-10.08306 -0.36427,-0.0917 -0.37621,-0.10515 -0.37621,-0.42334 v -0.32862 h 3.38667 3.38667 v 0.33483 c 0,0.31579 -0.0169,0.338 -0.29707,0.39056 -0.16339,0.0307 -0.39199,0.1304 -0.508,0.22165 l -0.21093,0.16592 0.003,9.66703 c 0.002,7.46562 0.0262,9.69761 0.10583,9.80136 0.14727,0.19181 0.43792,0.33133 0.69024,0.33133 0.20102,0 0.21724,0.0284 0.21724,0.381 v 0.381 h -3.38667 -3.38667 z m 13.80067,0.0149 c 0,-0.37341 2.3e-4,-0.37368 0.34699,-0.4202 0.19107,-0.0256 0.43836,-0.13237 0.55033,-0.23757 l 0.20335,-0.19103 v -9.64109 -9.6411 l -0.19808,-0.19808 c -0.10895,-0.10895 -0.3566,-0.22486 -0.55034,-0.25759 -0.34384,-0.0581 -0.35225,-0.0675 -0.35225,-0.39448 v -0.33496 l 7.72583,0.0311 c 7.53654,0.0304 7.74971,0.0357 8.69952,0.21711 1.88323,0.35971 3.40686,0.96006 4.40266,1.73477 0.53943,0.41966 1.19028,1.19653 1.4304,1.70735 0.57579,1.22494 0.57496,2.84104 -0.002,4.06864 -0.36397,0.77431 -1.54508,1.72229 -2.85569,2.29204 -0.35486,0.15426 -0.65571,0.31202 -0.66857,0.35059 -0.0129,0.0386 0.17725,0.14026 0.42245,0.22601 1.25774,0.43981 2.60323,1.36044 3.24788,2.22232 0.73123,0.97761 1.05544,2.71553 0.76315,4.09085 -0.48952,2.30334 -2.33389,3.82427 -5.4702,4.51092 -0.77884,0.17052 -1.07202,0.17708 -9.24985,0.20706 l -8.4455,0.031 z m 16.10099,-3.67482 c 1.12499,-0.31538 1.74367,-0.72821 2.16258,-1.44302 0.26004,-0.44372 0.36017,-1.43705 0.20335,-2.01723 -0.19793,-0.73223 -0.87499,-1.39322 -1.77531,-1.73317 -0.99358,-0.37515 -1.6343,-0.41705 -6.38344,-0.41739 l -4.46617,-3.2e-4 v 2.9255 2.92549 l 4.80483,-0.0289 c 4.61128,-0.0277 4.83101,-0.0362 5.45416,-0.21095 z m -0.22598,-9.36617 c 0.83722,-0.19879 1.46983,-0.53956 1.75433,-0.94502 0.31734,-0.45227 0.45477,-1.22775 0.3249,-1.83333 -0.15977,-0.74497 -0.43771,-1.12374 -1.04271,-1.42096 -1.01788,-0.50005 -1.33107,-0.52791 -6.43403,-0.57237 l -4.6355,-0.0404 v 2.5107 2.5107 l 4.72017,-0.0343 c 4.0228,-0.0292 4.80774,-0.0551 5.31284,-0.17502 z m 11.303,13.04305 c 0,-0.33814 0.0207,-0.3715 0.29215,-0.46963 0.59979,-0.21689 0.40907,0.14735 5.23801,-10.00371 2.02692,-4.26085 3.82151,-8.01371 3.98798,-8.33968 0.48355,-0.94684 0.40938,-1.42448 -0.26495,-1.70623 -0.24888,-0.10399 -0.27852,-0.1523 -0.27852,-0.45391 v -0.33753 h 3.47133 3.47134 v 0.34168 c 0,0.32395 -0.0196,0.35009 -0.37835,0.50385 -0.42156,0.18071 -0.51889,0.38301 -0.44594,0.92692 0.0266,0.19825 1.83436,3.82683 4.68294,9.39971 4.40972,8.627 4.65741,9.08904 4.99842,9.32366 0.19733,0.13576 0.45691,0.28416 0.57685,0.32976 0.18998,0.0722 0.21808,0.13227 0.21808,0.466 v 0.3831 h -3.64067 -3.64067 v -0.381 c 0,-0.30866 0.0286,-0.381 0.1505,-0.381 0.0828,0 0.23954,-0.0624 0.34837,-0.1386 0.35424,-0.24812 0.21822,-0.71113 -0.7801,-2.6554 l -0.89121,-1.73567 -5.06528,-0.0207 -5.06528,-0.0207 -0.82721,1.62939 c -0.78298,1.54225 -1.07779,2.22244 -1.07779,2.4867 0,0.18888 0.32189,0.45502 0.55034,0.45502 0.19442,0 0.21166,0.031 0.21166,0.381 v 0.381 h -2.921 -2.921 z m 15.57867,-8.05362 c 0,-0.0196 -0.77702,-1.75651 -1.72671,-3.85984 l -1.72671,-3.82424 -1.91396,3.76414 c -1.05267,2.07028 -1.91395,3.80721 -1.91395,3.85984 0,0.0697 0.99006,0.0957 3.64066,0.0957 2.00237,0 3.64067,-0.016 3.64067,-0.0356 z m 14.83297,8.06271 c 0.0237,-0.32291 0.0514,-0.36143 0.30718,-0.42731 0.55375,-0.1426 0.52845,0.37082 0.50344,-10.21626 -0.0217,-9.17008 -0.029,-9.56483 -0.17954,-9.7312 -0.0863,-0.0954 -0.26729,-0.19765 -0.40216,-0.22727 -0.21966,-0.0482 -0.24522,-0.0885 -0.24522,-0.3858 v -0.33194 h 3.556 3.556 v 0.3183 c 0,0.22661 -0.0488,0.34877 -0.16934,0.42405 -0.21454,0.13399 -0.21525,0.40897 -0.002,0.75879 0.13015,0.21345 9.33383,9.84622 11.99435,12.55354 l 0.54083,0.55033 -0.0224,-6.70097 c -0.0217,-6.48899 -0.0276,-6.7067 -0.18617,-6.88188 -0.0901,-0.0995 -0.32818,-0.2223 -0.52917,-0.27291 -0.35223,-0.0887 -0.36544,-0.10389 -0.36544,-0.42063 v -0.32862 h 3.13267 3.13267 v 0.33194 c 0,0.29734 -0.0256,0.33756 -0.24522,0.3858 -0.13487,0.0296 -0.31585,0.1319 -0.40217,0.22727 -0.15058,0.16638 -0.15785,0.56088 -0.17918,9.73203 -0.0246,10.58562 -0.0499,10.07303 0.50309,10.21543 0.2558,0.0659 0.28349,0.1044 0.30718,0.42731 l 0.026,0.3549 h -3.3492 -3.3492 v -0.37511 c 0,-0.31888 0.0273,-0.37917 0.18185,-0.40217 0.31495,-0.0468 0.39233,-0.2871 0.19915,-0.61831 -0.13764,-0.23599 -12.37008,-13.06924 -12.98808,-13.62601 l -0.18049,-0.1626 0.0226,6.9971 0.0226,6.99711 0.18029,0.18027 c 0.0992,0.0991 0.30871,0.20633 0.46566,0.23819 0.26391,0.0536 0.28734,0.0848 0.31142,0.41473 l 0.026,0.3568 h -3.10007 -3.10007 z m 29.27837,-0.009 c 0,-0.33814 0.0207,-0.3715 0.29214,-0.46963 0.59966,-0.21684 0.41587,0.1341 5.19447,-9.91905 2.00319,-4.21428 3.79799,-7.96609 3.98844,-8.33733 0.53077,-1.03463 0.47282,-1.50298 -0.22186,-1.79324 -0.24889,-0.10399 -0.27853,-0.1523 -0.27853,-0.45391 v -0.33753 h 3.47134 3.47133 v 0.34168 c 0,0.32395 -0.0196,0.35009 -0.37835,0.50385 -0.42156,0.18071 -0.51889,0.38301 -0.44593,0.92692 0.0266,0.19825 1.83435,3.82683 4.68294,9.39971 4.40971,8.627 4.65741,9.08904 4.99841,9.32366 0.19733,0.13576 0.45692,0.28416 0.57686,0.32976 0.18997,0.0722 0.21807,0.13227 0.21807,0.466 v 0.3831 h -3.64067 -3.64066 v -0.381 c 0,-0.30866 0.0286,-0.381 0.15049,-0.381 0.0828,0 0.23954,-0.0624 0.34837,-0.1386 0.35424,-0.24812 0.21822,-0.71113 -0.7801,-2.6554 l -0.89121,-1.73567 -5.06528,-0.0207 -5.06527,-0.0207 -0.82722,1.62939 c -0.78298,1.54225 -1.07778,2.22244 -1.07778,2.4867 0,0.18888 0.32188,0.45502 0.55033,0.45502 0.19442,0 0.21167,0.031 0.21167,0.381 v 0.381 h -2.921 -2.921 z m 15.57866,-8.05658 c 0,-0.0212 -0.77711,-1.75795 -1.72692,-3.85942 l -1.72693,-3.82086 -1.91374,3.76373 c -1.05256,2.07004 -1.91374,3.80678 -1.91374,3.85941 0,0.0697 0.99006,0.0957 3.64067,0.0957 2.00236,0 3.64066,-0.0174 3.64066,-0.0386 z m -157.64935,0.0765"
       style="display:inline;fill:#000000"
       id="path1"
       inkscape:label="HIBANA" />
  </g>
</svg>
